<?xml version="1.0" encoding="UTF-8"?>
<svg width="55px" height="80px" viewBox="0 0 55 80" version="1.1" xmlns="http://www.w3.org/2000/svg" xmlns:xlink="http://www.w3.org/1999/xlink">
    <!-- Generator: Sketch 42 (36781) - http://www.bohemiancoding.com/sketch -->
    <title>Logo</title>
    <desc>Created with Sketch.</desc>
    <defs>
        <rect id="path-1" x="0" y="0" width="50" height="50"></rect>
        <mask id="mask-2" maskContentUnits="userSpaceOnUse" maskUnits="objectBoundingBox" x="0" y="0" width="50" height="50" fill="white">
            <use xlink:href="#path-1"></use>
        </mask>
    </defs>
    <g id="Page-1" stroke="none" stroke-width="1" fill="none" fill-rule="evenodd">
        <g id="Layout/Home-Page" transform="translate(-109.000000, -30.000000)">
            <g id="Sidebar">
                <g id="Logo" transform="translate(109.000000, 30.000000)">
                    <path d="M6.921875,75.0859375 L5.6328125,76.453125 L5.6328125,80 L3.65625,80 L3.65625,68.625 L5.6328125,68.625 L5.6328125,73.9609375 L6.7265625,72.609375 L10.0546875,68.625 L12.4453125,68.625 L8.21875,73.6640625 L12.6875,80 L10.34375,80 L6.921875,75.0859375 Z M20.109375,77.3515625 L15.703125,77.3515625 L14.78125,80 L12.7265625,80 L17.0234375,68.625 L18.796875,68.625 L23.1015625,80 L21.0390625,80 L20.109375,77.3515625 Z M16.2578125,75.7578125 L19.5546875,75.7578125 L17.90625,71.0390625 L16.2578125,75.7578125 Z M26.25,78.421875 L32.328125,78.421875 L32.328125,80 L23.859375,80 L23.859375,78.71875 L29.7421875,70.21875 L23.8984375,70.21875 L23.8984375,68.625 L32.140625,68.625 L32.140625,69.875 L26.25,78.421875 Z M42.2421875,70.21875 L38.6953125,70.21875 L38.6953125,80 L36.734375,80 L36.734375,70.21875 L33.21875,70.21875 L33.21875,68.625 L42.2421875,68.625 L42.2421875,70.21875 Z M50.3828125,74.921875 L45.7109375,74.921875 L45.7109375,78.421875 L51.171875,78.421875 L51.171875,80 L43.734375,80 L43.734375,68.625 L51.1171875,68.625 L51.1171875,70.21875 L45.7109375,70.21875 L45.7109375,73.359375 L50.3828125,73.359375 L50.3828125,74.921875 Z" id="KAZTE" fill="#676E73"></path>
                    <g id="Symbol">
                        <rect id="Fill" fill="#00C9AD" x="5" y="5" width="50" height="50"></rect>
                        <use id="Border" stroke="#008271" mask="url(#mask-2)" stroke-width="4" xlink:href="#path-1"></use>
                        <polygon id="K" fill="#FFFFFF" points="24.8671875 27.15625 23.0390625 29.125 23.0390625 34 19.5234375 34 19.5234375 16.9375 23.0390625 16.9375 23.0390625 24.671875 24.5859375 22.5507812 28.9335938 16.9375 33.2578125 16.9375 27.1992188 24.5195312 33.4335938 34 29.25 34"></polygon>
                    </g>
                </g>
            </g>
        </g>
    </g>
</svg>